  0
SECTION
  2
HEADER
  9
$ACADVER
  1
AC1021
  9
$ACADMAINTVER
 70
25
  9
$DWGCODEPAGE
  3
ANSI_1252
  9
$EXTMIN
 10
10
 20
10
 30
0
  9
$EXTMAX
 10
180.730873856
 20
499.737976928
 30
0
  9
$LIMMIN
 10
0.0
 20
0.0
  9
$LIMMAX
 10
420.0
 20
297.0
  9
$TDCREATE
 40
2461294.0854513887
  9
$TDUPDATE
 40
2461294.0854513887
  9
$HANDSEED
  5
35
  9
$PEXTMIN
 10
1e+20
 20
1e+20
 30
1e+20
  9
$PEXTMAX
 10
-1e+20
 20
-1e+20
 30
-1e+20
  9
$PLIMMIN
 10
0.0
 20
0.0
  9
$PLIMMAX
 10
420.0
 20
297.0
  9
$INSUNITS
 70
4
  9
$FINGERPRINTGUID
  2
{7C8666D7-8814-4C1E-9046-5B49803610BD}
  9
$VERSIONGUID
  2
{EC66910D-EDEF-4ABA-B74E-01AB9F16B115}
  9
$CMATERIAL
347
25
  0
ENDSEC
  0
SECTION
  2
CLASSES
  0
CLASS
  1
ACDBDICTIONARYWDFLT
  2
AcDbDictionaryWithDefault
  3
ObjectDBX Classes
 90
0
 91
0
280
0
281
0
  0
CLASS
  1
SUN
  2
AcDbSun
  3
SCENEOE
 90
1153
 91
0
280
0
281
0
  0
CLASS
  1
VISUALSTYLE
  2
AcDbVisualStyle
  3
ObjectDBX Classes
 90
4095
 91
0
280
0
281
0
  0
CLASS
  1
MATERIAL
  2
AcDbMaterial
  3
ObjectDBX Classes
 90
1153
 91
0
280
0
281
0
  0
CLASS
  1
SCALE
  2
AcDbScale
  3
ObjectDBX Classes
 90
1153
 91
0
280
0
281
0
  0
CLASS
  1
TABLESTYLE
  2
AcDbTableStyle
  3
ObjectDBX Classes
 90
4095
 91
0
280
0
281
0
  0
CLASS
  1
MLEADERSTYLE
  2
AcDbMLeaderStyle
  3
ACDB_MLEADERSTYLE_CLASS
 90
4095
 91
0
280
0
281
0
  0
CLASS
  1
DICTIONARYVAR
  2
AcDbDictionaryVar
  3
ObjectDBX Classes
 90
0
 91
0
280
0
281
0
  0
CLASS
  1
CELLSTYLEMAP
  2
AcDbCellStyleMap
  3
ObjectDBX Classes
 90
1152
 91
0
280
0
281
0
  0
CLASS
  1
MENTALRAYRENDERSETTINGS
  2
AcDbMentalRayRenderSettings
  3
SCENEOE
 90
1024
 91
0
280
0
281
0
  0
CLASS
  1
ACDBDETAILVIEWSTYLE
  2
AcDbDetailViewStyle
  3
ObjectDBX Classes
 90
1025
 91
0
280
0
281
0
  0
CLASS
  1
ACDBSECTIONVIEWSTYLE
  2
AcDbSectionViewStyle
  3
ObjectDBX Classes
 90
1025
 91
0
280
0
281
0
  0
CLASS
  1
RASTERVARIABLES
  2
AcDbRasterVariables
  3
ISM
 90
0
 91
0
280
0
281
0
  0
CLASS
  1
ACDBPLACEHOLDER
  2
AcDbPlaceHolder
  3
ObjectDBX Classes
 90
0
 91
0
280
0
281
0
  0
CLASS
  1
LAYOUT
  2
AcDbLayout
  3
ObjectDBX Classes
 90
0
 91
0
280
0
281
0
  0
ENDSEC
  0
SECTION
  2
TABLES
  0
TABLE
  2
VPORT
  5
8
330
0
100
AcDbSymbolTable
 70
1
  0
VPORT
  5
28
330
8
100
AcDbSymbolTableRecord
100
AcDbViewportTableRecord
  2
*Active
 70
0
 10
0.0
 20
0.0
 11
1.0
 21
1.0
 12
0.0
 22
0.0
 13
0.0
 23
0.0
 14
0.5
 24
0.5
 15
0.5
 25
0.5
 16
0.0
 26
0.0
 36
1.0
 17
0.0
 27
0.0
 37
0.0
 40
1000.0
 41
1.34
 42
50.0
 43
0.0
 44
0.0
 50
0.0
 51
0.0
 71
0
 72
1000
 73
1
 74
3
 75
0
 76
0
 77
0
 78
0
281
0
 65
0
146
0.0
  0
ENDTAB
  0
TABLE
  2
LTYPE
  5
1
330
0
100
AcDbSymbolTable
 70
3
  0
LTYPE
  5
29
330
1
100
AcDbSymbolTableRecord
100
AcDbLinetypeTableRecord
  2
ByBlock
 70
0
  3

 72
65
 73
0
 40
0.0
  0
LTYPE
  5
2A
330
1
100
AcDbSymbolTableRecord
100
AcDbLinetypeTableRecord
  2
ByLayer
 70
0
  3

 72
65
 73
0
 40
0.0
  0
LTYPE
  5
2B
330
1
100
AcDbSymbolTableRecord
100
AcDbLinetypeTableRecord
  2
Continuous
 70
0
  3

 72
65
 73
0
 40
0.0
  0
ENDTAB
  0
TABLE
  2
LAYER
  5
2
330
0
100
AcDbSymbolTable
 70
4
  0
LAYER
  5
10
330
2
100
AcDbSymbolTableRecord
100
AcDbLayerTableRecord
  2
0
 70
0
 62
7
  6
Continuous
370
-3
390
1C
347
26
  0
LAYER
  5
11
330
2
100
AcDbSymbolTableRecord
100
AcDbLayerTableRecord
  2
CUT_FRONT
 70
0
 62
1
  6
Continuous
370
-3
390
1C
347
26
  0
LAYER
  5
12
330
2
100
AcDbSymbolTableRecord
100
AcDbLayerTableRecord
  2
CUT_BACK
 70
0
 62
5
  6
Continuous
370
-3
390
1C
347
26
  0
LAYER
  5
2C
330
2
100
AcDbSymbolTableRecord
100
AcDbLayerTableRecord
  2
Defpoints
 70
0
 62
7
  6
Continuous
290
0
370
-3
390
1C
347
26
  0
ENDTAB
  0
TABLE
  2
STYLE
  5
5
330
0
100
AcDbSymbolTable
 70
1
  0
STYLE
  5
2D
330
5
100
AcDbSymbolTableRecord
100
AcDbTextStyleTableRecord
  2
Standard
 70
0
 40
0.0
 41
1.0
 50
0.0
 71
0
 42
2.5
  3
txt
  4

  0
ENDTAB
  0
TABLE
  2
VIEW
  5
7
330
0
100
AcDbSymbolTable
 70
0
  0
ENDTAB
  0
TABLE
  2
UCS
  5
6
330
0
100
AcDbSymbolTable
 70
0
  0
ENDTAB
  0
TABLE
  2
APPID
  5
3
330
0
100
AcDbSymbolTable
 70
3
  0
APPID
  5
2E
330
3
100
AcDbSymbolTableRecord
100
AcDbRegAppTableRecord
  2
ACAD
 70
0
  0
APPID
  5
31
330
3
100
AcDbSymbolTableRecord
100
AcDbRegAppTableRecord
  2
HATCHBACKGROUNDCOLOR
 70
0
  0
APPID
  5
32
330
3
100
AcDbSymbolTableRecord
100
AcDbRegAppTableRecord
  2
EZDXF
 70
0
  0
ENDTAB
  0
TABLE
  2
DIMSTYLE
  5
4
330
0
100
AcDbSymbolTable
 70
1
100
AcDbDimStyleTable
  0
DIMSTYLE
105
2F
330
4
100
AcDbSymbolTableRecord
100
AcDbDimStyleTableRecord
  2
Standard
 70
0
 40
1.0
 41
2.5
 42
0.625
 43
3.75
 44
1.25
 45
0.0
 46
0.0
 47
0.0
 48
0.0
 49
2.5
140
2.5
141
2.5
142
0.0
143
0.03937007874
144
1.0
145
0.0
146
1.0
147
0.625
148
0.0
 69
0
 70
0
 71
0
 72
0
 73
0
 74
0
 75
0
 76
0
 77
1
 78
8
 79
3
170
0
171
3
172
1
173
0
174
0
175
0
176
0
177
0
178
0
179
2
271
2
272
2
273
2
274
3
275
0
276
0
277
2
278
44
279
0
280
0
281
0
282
0
283
0
284
8
285
0
286
0
288
0
289
3
290
0
371
-2
372
-2
  0
ENDTAB
  0
TABLE
  2
BLOCK_RECORD
  5
9
330
0
100
AcDbSymbolTable
 70
2
  0
BLOCK_RECORD
  5
A
330
9
100
AcDbSymbolTableRecord
100
AcDbBlockTableRecord
  2
*Model_Space
340
22
 70
0
280
1
281
0
  0
BLOCK_RECORD
  5
B
330
9
100
AcDbSymbolTableRecord
100
AcDbBlockTableRecord
  2
*Paper_Space
340
23
 70
0
280
1
281
0
  0
ENDTAB
  0
ENDSEC
  0
SECTION
  2
BLOCKS
  0
BLOCK
  5
C
330
A
100
AcDbEntity
  8
0
100
AcDbBlockBegin
  2
*Model_Space
 70
0
 10
0.0
 20
0.0
 30
0.0
  3
*Model_Space
  1

  0
ENDBLK
  5
D
330
A
100
AcDbEntity
  8
0
100
AcDbBlockEnd
  0
BLOCK
  5
E
330
B
100
AcDbEntity
  8
0
100
AcDbBlockBegin
  2
*Paper_Space
 70
0
 10
0.0
 20
0.0
 30
0.0
  3
*Paper_Space
  1

  0
ENDBLK
  5
F
330
B
100
AcDbEntity
  8
0
100
AcDbBlockEnd
  0
ENDSEC
  0
SECTION
  2
ENTITIES
0
LWPOLYLINE
5
20
330
A
100
AcDbEntity
8
CUT_FRONT
100
AcDbPolyline
90
408
70
1
10
10
20
194.217631564
10
10.281237872
20
192.897946676
10
10.560043334
20
191.577883295
10
10.836571646
20
190.257465579
10
11.110978068
20
188.936717689
10
11.383417859
20
187.615663783
10
11.654046282
20
186.29432802
10
11.923018595
20
184.97273456
10
12.190490059
20
183.650907562
10
12.456615934
20
182.328871185
10
12.721551481
20
181.006649587
10
12.98545196
20
179.684266929
10
13.24847263
20
178.361747369
10
13.510768753
20
177.039115066
10
13.772495588
20
175.71639418
10
14.033808396
20
174.393608869
10
14.294862436
20
173.070783293
10
14.55581297
20
171.747941611
10
14.816815258
20
170.425107982
10
15.078024559
20
169.102306565
10
15.339596133
20
167.77956152
10
15.601685242
20
166.456897005
10
15.864447146
20
165.13433718
10
16.128037104
20
163.811906203
10
16.392610377
20
162.489628234
10
16.658322225
20
161.167527432
10
16.925327908
20
159.845627957
10
17.193782687
20
158.523953966
10
17.463841822
20
157.20252962
10
17.735660573
20
155.881379078
10
18.0093942
20
154.560526498
10
18.285197964
20
153.23999604
10
18.563227125
20
151.919811863
10
18.843636942
20
150.599998126
10
19.126582677
20
149.280578988
10
19.41221959
20
147.961578608
10
19.70070294
20
146.643021146
10
19.992187989
20
145.324930761
10
20.286829996
20
144.007331611
10
20.584784221
20
142.690247856
10
20.886205925
20
141.373703656
10
21.191250368
20
140.057723168
10
21.50007281
20
138.742330553
10
21.812828512
20
137.427549969
10
22.129672734
20
136.113405576
10
22.450760735
20
134.799921532
10
22.776247777
20
133.487121997
10
23.106289119
20
132.17503113
10
23.441040022
20
130.863673091
10
23.780655746
20
129.553072037
10
24.125291552
20
128.243252129
10
24.476500165
20
126.914650097
10
24.828706223
20
125.574933275
10
25.182014623
20
124.224837346
10
25.536530261
20
122.865097995
10
25.892358032
20
121.496450904
10
26.249602832
20
120.119631757
10
26.608369558
20
118.735376239
10
26.968763105
20
117.344420033
10
27.33088837
20
115.947498823
10
27.694850249
20
114.545348293
10
28.060753637
20
113.138704126
10
28.428703431
20
111.728302006
10
28.798804526
20
110.314877618
10
29.171161819
20
108.899166644
10
29.545880206
20
107.481904769
10
29.923064582
20
106.063827676
10
30.302819844
20
104.645671049
10
30.685250888
20
103.228170571
10
31.070462609
20
101.812061928
10
31.458559905
20
100.398080802
10
31.84964767
20
98.986962877
10
32.243830801
20
97.579443837
10
32.641214193
20
96.176259366
10
33.041902744
20
94.778145147
10
33.446001348
20
93.385836865
10
33.853614903
20
92.000070202
10
34.264848303
20
90.621580844
10
34.679806445
20
89.251104473
10
35.098594225
20
87.889376773
10
35.521316539
20
86.537133429
10
35.948078283
20
85.195110123
10
36.378984353
20
83.86404254
10
36.814139645
20
82.544666364
10
37.253649055
20
81.237717278
10
37.69761748
20
79.943930966
10
38.146149814
20
78.664043111
10
38.599350954
20
77.398789398
10
39.057325797
20
76.148905511
10
39.520179237
20
74.915127132
10
39.988016172
20
73.698189947
10
40.460941497
20
72.498829638
10
40.939060108
20
71.317781889
10
41.422476901
20
70.155782385
10
41.911296773
20
69.013566809
10
42.405624619
20
67.891870844
10
42.905565335
20
66.791430175
10
43.411223817
20
65.712980485
10
43.922704962
20
64.657257458
10
44.440113665
20
63.624996778
10
44.963554822
20
62.616934129
10
45.338824514
20
61.914041723
10
45.715852869
20
61.221356884
10
46.094669304
20
60.538637107
10
46.475303237
20
59.865639886
10
46.857784084
20
59.202122716
10
47.242141264
20
58.547843092
10
47.628404194
20
57.902558508
10
48.01660229
20
57.266026459
10
48.40676497
20
56.638004441
10
48.798921651
20
56.018249946
10
49.193101751
20
55.406520472
10
49.589334687
20
54.802573511
10
49.987649876
20
54.206166558
10
50.388076735
20
53.617057109
10
50.790644683
20
53.035002658
10
51.195383135
20
52.4597607
10
51.602321509
20
51.891088729
10
52.011489223
20
51.328744241
10
52.422915694
20
50.772484729
10
52.836630339
20
50.222067689
10
53.252662576
20
49.677250615
10
53.671041821
20
49.137791002
10
54.091797492
20
48.603446344
10
54.514959007
20
48.073974137
10
54.940555782
20
47.549131875
10
55.368617235
20
47.028677053
10
55.799172783
20
46.512367165
10
56.232251843
20
45.999959706
10
56.667883833
20
45.491212171
10
57.10609817
20
44.985882054
10
57.546924272
20
44.483726851
10
57.990391554
20
43.984504056
10
58.436529436
20
43.487971163
10
58.885367334
20
42.993885667
10
59.336934665
20
42.502005064
10
59.791260847
20
42.012086847
10
60.248375297
20
41.523888512
10
60.708307432
20
41.037167553
10
61.17108667
20
40.551681464
10
61.636742427
20
40.067187741
10
62.105304122
20
39.583443879
10
62.576801171
20
39.100207371
10
63.051262991
20
38.617235713
10
63.528719001
20
38.134286399
10
64.009198617
20
37.651116924
10
64.492731256
20
37.167484782
10
64.979346336
20
36.68314747
10
65.469073274
20
36.19786248
10
65.961941487
20
35.711387308
10
66.457980394
20
35.223479448
10
66.967325747
20
34.723306034
10
67.480039872
20
34.220100744
10
67.996087741
20
33.7142143
10
68.515434325
20
33.205997425
10
69.038044596
20
32.695800841
10
69.563883525
20
32.183975272
10
70.092916085
20
31.67087144
10
70.625107246
20
31.156840067
10
71.16042198
20
30.642231877
10
71.698825258
20
30.127397591
10
72.240282053
20
29.612687933
10
72.784757336
20
29.098453624
10
73.332216079
20
28.585045389
10
73.882623252
20
28.072813948
10
74.435943829
20
27.562110025
10
74.992142779
20
27.053284343
10
75.551185076
20
26.546687624
10
76.113035689
20
26.042670591
10
76.677659592
20
25.541583966
10
77.245021756
20
25.043778472
10
77.815087151
20
24.549604832
10
78.387820751
20
24.059413768
10
78.963187526
20
23.573556003
10
79.541152448
20
23.092382259
10
80.121680488
20
22.61624326
10
80.704736619
20
22.145489727
10
81.290285811
20
21.680472383
10
81.878293036
20
21.221541952
10
82.468723267
20
20.769049155
10
83.061541474
20
20.323344715
10
83.656712629
20
19.884779355
10
84.254201704
20
19.453703798
10
84.85397367
20
19.030468766
10
85.455993499
20
18.615424981
10
86.060226163
20
18.208923167
10
86.666636632
20
17.811314046
10
87.275189879
20
17.42294834
10
87.885850875
20
17.044176772
10
88.498584593
20
16.675350066
10
89.113356002
20
16.316818943
10
89.730130076
20
15.968934126
10
90.348871785
20
15.632046337
10
90.969546101
20
15.3065063
10
91.592117996
20
14.992664737
10
92.216552441
20
14.690872371
10
92.842814408
20
14.401479923
10
93.470868869
20
14.124838118
10
94.100680795
20
13.861297677
10
94.732215157
20
13.611209323
10
95.365436928
20
13.374923778
10
95.970405927
20
13.160468994
10
96.581493983
20
12.952377571
10
97.198439112
20
12.750721099
10
97.820979327
20
12.555571169
10
98.448852642
20
12.366999372
10
99.081797073
20
12.185077298
10
99.719550633
20
12.009876538
10
100.361851337
20
11.841468682
10
101.008437198
20
11.679925322
10
101.659046232
20
11.525318046
10
102.313416453
20
11.377718447
10
102.971285874
20
11.237198115
10
103.632392511
20
11.10382864
10
104.296474378
20
10.977681613
10
104.963269488
20
10.858828624
10
105.632515857
20
10.747341264
10
106.303951498
20
10.643291124
10
106.977314426
20
10.546749794
10
107.652342656
20
10.457788865
10
108.328774201
20
10.376479927
10
109.006347076
20
10.302894572
10
109.684799295
20
10.237104388
10
110.363868873
20
10.179180968
10
111.043293824
20
10.129195901
10
111.722812162
20
10.087220779
10
112.402161902
20
10.053327191
10
113.081081057
20
10.027586729
10
113.759307643
20
10.010070982
10
114.436579673
20
10.000851543
10
115.112635162
20
10
10
115.787212124
20
10.007587945
10
116.460048574
20
10.023686968
10
117.130882526
20
10.048368661
10
117.799451993
20
10.081704612
10
118.465494992
20
10.123766414
10
119.128749535
20
10.174625656
10
119.788953637
20
10.23435393
10
120.445845313
20
10.303022825
10
121.099162576
20
10.380703932
10
121.748643442
20
10.467468843
10
122.394025924
20
10.563389147
10
123.035048037
20
10.668536435
10
123.671447795
20
10.782982297
10
124.302963213
20
10.906798325
10
124.929332304
20
11.040056109
10
125.550293084
20
11.182827239
10
126.165583565
20
11.335183306
10
126.774941764
20
11.4971959
10
127.378105694
20
11.668936613
10
127.974813369
20
11.850477034
10
128.586257984
20
12.046979969
10
129.198511826
20
12.252520484
10
129.811364103
20
12.46710894
10
130.42460402
20
12.690755694
10
131.038020783
20
12.923471105
10
131.651403598
20
13.165265532
10
132.264541673
20
13.416149334
10
132.877224213
20
13.676132868
10
133.489240425
20
13.945226493
10
134.100379515
20
14.223440569
10
134.710430688
20
14.510785453
10
135.319183152
20
14.807271505
10
135.926426113
20
15.112909082
10
136.531948777
20
15.427708544
10
137.135540351
20
15.75168025
10
137.736990039
20
16.084834556
10
138.33608705
20
16.427181823
10
138.932620589
20
16.778732409
10
139.526379863
20
17.139496673
10
140.117154077
20
17.509484972
10
140.704732439
20
17.888707667
10
141.288904154
20
18.277175114
10
141.869458428
20
18.674897673
10
142.446184468
20
19.081885703
10
143.018871481
20
19.498149562
10
143.587308672
20
19.923699609
10
144.151285248
20
20.358546201
10
144.710590416
20
20.802699699
10
145.26501338
20
21.25617046
10
145.814343349
20
21.718968844
10
146.358369527
20
22.191105208
10
146.896881122
20
22.672589911
10
147.429667339
20
23.163433312
10
147.956517385
20
23.663645769
10
148.477220466
20
24.173237642
10
148.991565789
20
24.692219288
10
149.499342559
20
25.220601067
10
150.000339984
20
25.758393336
10
150.494347269
20
26.305606455
10
150.98115362
20
26.862250782
10
151.460548245
20
27.428336676
10
151.932320348
20
28.003874494
10
152.396259137
20
28.588874597
10
152.852153818
20
29.183347342
10
153.299793597
20
29.787303088
10
153.738967681
20
30.400752194
10
154.169465275
20
31.023705018
10
154.591075586
20
31.656171919
10
155.00358782
20
32.298163256
10
155.406791184
20
32.949689386
10
155.979215849
20
33.93166261
10
156.527194868
20
34.950241042
10
157.0514626
20
36.004377084
10
157.5527534
20
37.093023138
10
158.031801625
20
38.215131607
10
158.489341633
20
39.369654893
10
158.92610778
20
40.555545398
10
159.342834424
20
41.771755526
10
159.74025592
20
43.017237678
10
160.119106627
20
44.290944256
10
160.4801209
20
45.591827663
10
160.824033097
20
46.918840302
10
161.151577575
20
48.270934574
10
161.463488691
20
49.647062883
10
161.760500801
20
51.046177629
10
162.043348262
20
52.467231217
10
162.312765432
20
53.909176047
10
162.569486667
20
55.370964523
10
162.814246324
20
56.851549047
10
163.04777876
20
58.349882021
10
163.270818332
20
59.864915848
10
163.484099397
20
61.395602929
10
163.688356312
20
62.940895668
10
163.884323433
20
64.499746466
10
164.072735117
20
66.071107726
10
164.254325722
20
67.65393185
10
164.429829605
20
69.247171242
10
164.599981122
20
70.849778302
10
164.765514629
20
72.460705433
10
164.927164485
20
74.078905038
10
165.085665046
20
75.70332952
10
165.241750668
20
77.33293128
10
165.39615571
20
78.96666272
10
165.549614527
20
80.603476244
10
165.702861476
20
82.242324253
10
165.856630915
20
83.882159151
10
166.0116572
20
85.521933338
10
166.168674689
20
87.160599218
10
166.328417737
20
88.797109193
10
166.491620703
20
90.430415665
10
166.659017943
20
92.059471037
10
166.831343813
20
93.683227711
10
167.009332671
20
95.300638089
10
167.193718874
20
96.910654574
10
167.385236778
20
98.512229569
10
167.584620741
20
100.104315474
10
167.792605119
20
101.685864693
10
168.00992427
20
103.255829629
10
168.237312549
20
104.813162683
10
168.475504315
20
106.356816258
10
168.740649393
20
108.035963488
10
169.004175433
20
109.721418673
10
169.266132507
20
111.412986722
10
169.52657069
20
113.110472544
10
169.785540055
20
114.813681047
10
170.043090674
20
116.522417139
10
170.299272622
20
118.23648573
10
170.554135971
20
119.955691728
10
170.807730795
20
121.679840041
10
171.060107168
20
123.408735579
10
171.311315163
20
125.142183249
10
171.561404852
20
126.879987961
10
171.81042631
20
128.621954622
10
172.05842961
20
130.367888142
10
172.305464825
20
132.117593429
10
172.551582029
20
133.870875392
10
172.796831294
20
135.627538939
10
173.041262694
20
137.387388979
10
173.284926304
20
139.150230421
10
173.527872195
20
140.915868172
10
173.770150441
20
142.684107143
10
174.011811116
20
144.454752241
10
174.252904293
20
146.227608374
10
174.493480045
20
148.002480452
10
174.733588446
20
149.779173383
10
174.973279569
20
151.557492076
10
175.212603487
20
153.337241439
10
175.451610274
20
155.118226381
10
175.690350004
20
156.900251811
10
175.928872748
20
158.683122636
10
176.167228582
20
160.466643767
10
176.405467578
20
162.25062011
10
176.643639809
20
164.034856576
10
176.881795349
20
165.819158071
10
177.119984271
20
167.603329506
10
177.358256649
20
169.387175789
10
177.596662556
20
171.170501828
10
177.835252065
20
172.953112532
10
178.07407525
20
174.734812809
10
178.313182184
20
176.515407568
10
178.55262294
20
178.294701718
10
178.792447592
20
180.072500167
10
179.032706213
20
181.848607824
10
179.273448877
20
183.622829597
10
179.514725656
20
185.394970396
10
179.756586624
20
187.164835128
10
179.999081855
20
188.932228702
10
180.242261422
20
190.696956027
10
180.486175398
20
192.458822012
10
180.730873856
20
194.217631564
10
149.272408444
20
207.115885474
10
135.365436928
20
257.737976928
10
142.365436928
20
307.737976928
10
95.365436928
20
307.737976928
10
48.365436928
20
307.737976928
10
55.365436928
20
257.737976928
10
41.458465412
20
207.115885474
0
LWPOLYLINE
5
21
330
A
100
AcDbEntity
8
CUT_BACK
100
AcDbPolyline
90
12
70
1
10
94
20
499.737976928
10
141
20
499.737976928
10
134
20
449.737976928
10
150
20
399.737976928
10
178
20
399.737976928
10
178
20
337.737976928
10
94
20
337.737976928
10
10
20
337.737976928
10
10
20
399.737976928
10
38
20
399.737976928
10
54
20
449.737976928
10
47
20
499.737976928
  0
ENDSEC
  0
SECTION
  2
OBJECTS
  0
DICTIONARY
  5
13
330
0
100
AcDbDictionary
281
1
  3
ACAD_COLOR
350
14
  3
ACAD_GROUP
350
15
  3
ACAD_LAYOUT
350
16
  3
ACAD_MATERIAL
350
17
  3
ACAD_MLEADERSTYLE
350
18
  3
ACAD_MLINESTYLE
350
19
  3
ACAD_PLOTSETTINGS
350
1A
  3
ACAD_PLOTSTYLENAME
350
1B
  3
ACAD_SCALELIST
350
1D
  3
ACAD_TABLESTYLE
350
1E
  3
ACAD_VISUALSTYLE
350
1F
  3
EZDXF_META
350
33
  0
DICTIONARY
  5
14
330
13
100
AcDbDictionary
281
1
  0
DICTIONARY
  5
15
330
13
100
AcDbDictionary
281
1
  0
DICTIONARY
  5
16
330
13
100
AcDbDictionary
281
1
  3
Model
350
22
  3
Layout1
350
23
  0
DICTIONARY
  5
17
330
13
100
AcDbDictionary
281
1
  3
ByBlock
350
24
  3
ByLayer
350
25
  3
Global
350
26
  0
DICTIONARY
  5
18
330
13
100
AcDbDictionary
281
1
  3
Standard
350
30
  0
DICTIONARY
  5
19
330
13
100
AcDbDictionary
281
1
  3
Standard
350
27
  0
DICTIONARY
  5
1A
330
13
100
AcDbDictionary
281
1
  0
ACDBDICTIONARYWDFLT
  5
1B
330
13
100
AcDbDictionary
281
1
  3
Normal
350
1C
100
AcDbDictionaryWithDefault
340
1C
  0
ACDBPLACEHOLDER
  5
1C
330
1B
  0
DICTIONARY
  5
1D
330
13
100
AcDbDictionary
281
1
  0
DICTIONARY
  5
1E
330
13
100
AcDbDictionary
281
1
  0
DICTIONARY
  5
1F
330
13
100
AcDbDictionary
281
1
  0
LAYOUT
  5
22
330
16
100
AcDbPlotSettings
  1

  4
A3
  6

 40
7.5
 41
20.0
 42
7.5
 43
20.0
 44
420.0
 45
297.0
 46
0.0
 47
0.0
 48
0.0
 49
0.0
140
0.0
141
0.0
142
1.0
143
1.0
 70
1024
 72
1
 73
0
 74
5
  7

 75
16
 76
0
 77
2
 78
300
147
1.0
148
0.0
149
0.0
100
AcDbLayout
  1
Model
 70
1
 71
0
 10
0.0
 20
0.0
 11
420.0
 21
297.0
 12
0.0
 22
0.0
 32
0.0
 14
1e+20
 24
1e+20
 34
1e+20
 15
-1e+20
 25
-1e+20
 35
-1e+20
146
0.0
 13
0.0
 23
0.0
 33
0.0
 16
1.0
 26
0.0
 36
0.0
 17
0.0
 27
1.0
 37
0.0
 76
1
330
A
  0
LAYOUT
  5
23
330
16
100
AcDbPlotSettings
  1

  4
A3
  6

 40
7.5
 41
20.0
 42
7.5
 43
20.0
 44
420.0
 45
297.0
 46
0.0
 47
0.0
 48
0.0
 49
0.0
140
0.0
141
0.0
142
1.0
143
1.0
 70
0
 72
1
 73
0
 74
5
  7

 75
16
 76
0
 77
2
 78
300
147
1.0
148
0.0
149
0.0
100
AcDbLayout
  1
Layout1
 70
1
 71
1
 10
0.0
 20
0.0
 11
420.0
 21
297.0
 12
0.0
 22
0.0
 32
0.0
 14
1e+20
 24
1e+20
 34
1e+20
 15
-1e+20
 25
-1e+20
 35
-1e+20
146
0.0
 13
0.0
 23
0.0
 33
0.0
 16
1.0
 26
0.0
 36
0.0
 17
0.0
 27
1.0
 37
0.0
 76
1
330
B
  0
MATERIAL
  5
24
102
{ACAD_REACTORS
330
17
102
}
330
17
100
AcDbMaterial
  1
ByBlock
  2

 70
0
 40
1.0
 71
1
 41
1.0
 91
-1023410177
 42
1.0
 72
1
  3

 73
1
 74
1
 75
1
 44
0.5
 73
0
 45
1.0
 46
1.0
 77
1
  4

 78
1
 79
1
170
1
 48
1.0
171
1
  6

172
1
173
1
174
1
140
1.0
141
1.0
175
1
  7

176
1
177
1
178
1
143
1.0
179
1
  8

270
1
271
1
272
1
145
1.0
146
1.0
273
1
  9

274
1
275
1
276
1
 42
1.0
 72
1
  3

 73
1
 74
1
 75
1
 94
63
  0
MATERIAL
  5
25
102
{ACAD_REACTORS
330
17
102
}
330
17
100
AcDbMaterial
  1
ByLayer
  2

 70
0
 40
1.0
 71
1
 41
1.0
 91
-1023410177
 42
1.0
 72
1
  3

 73
1
 74
1
 75
1
 44
0.5
 73
0
 45
1.0
 46
1.0
 77
1
  4

 78
1
 79
1
170
1
 48
1.0
171
1
  6

172
1
173
1
174
1
140
1.0
141
1.0
175
1
  7

176
1
177
1
178
1
143
1.0
179
1
  8

270
1
271
1
272
1
145
1.0
146
1.0
273
1
  9

274
1
275
1
276
1
 42
1.0
 72
1
  3

 73
1
 74
1
 75
1
 94
63
  0
MATERIAL
  5
26
102
{ACAD_REACTORS
330
17
102
}
330
17
100
AcDbMaterial
  1
Global
  2

 70
0
 40
1.0
 71
1
 41
1.0
 91
-1023410177
 42
1.0
 72
1
  3

 73
1
 74
1
 75
1
 44
0.5
 73
0
 45
1.0
 46
1.0
 77
1
  4

 78
1
 79
1
170
1
 48
1.0
171
1
  6

172
1
173
1
174
1
140
1.0
141
1.0
175
1
  7

176
1
177
1
178
1
143
1.0
179
1
  8

270
1
271
1
272
1
145
1.0
146
1.0
273
1
  9

274
1
275
1
276
1
 42
1.0
 72
1
  3

 73
1
 74
1
 75
1
 94
63
  0
MLINESTYLE
  5
27
102
{ACAD_REACTORS
330
19
102
}
330
19
100
AcDbMlineStyle
  2
Standard
 70
0
  3

 62
256
 51
90.0
 52
90.0
 71
2
 49
0.5
 62
256
  6
BYLAYER
 49
-0.5
 62
256
  6
BYLAYER
  0
MLEADERSTYLE
  5
30
102
{ACAD_REACTORS
330
18
102
}
330
18
100
AcDbMLeaderStyle
179
2
170
2
171
1
172
0
 90
2
 40
0.0
 41
0.0
173
1
 91
-1056964608
 92
-2
290
1
 42
2.0
291
1
 43
8.0
  3
Standard
 44
4.0
300

342
2D
174
1
175
1
176
0
178
1
 93
-1056964608
 45
4.0
292
0
297
0
 46
4.0
 94
-1056964608
 47
1.0
 49
1.0
140
1.0
294
1
141
0.0
177
0
142
1.0
295
0
296
0
143
3.75
271
0
272
9
273
9
  0
DICTIONARY
  5
33
330
13
100
AcDbDictionary
280
1
281
1
  3
WRITTEN_BY_EZDXF
350
34
  0
DICTIONARYVAR
  5
34
330
33
100
DictionaryVariables
280
0
  1
1.4.4 @ 2026-09-10T02:03:03.975771+00:00
  0
ENDSEC
  0
EOF
