0
SECTION
2
HEADER
9
$ACADVER
1
AC1032
9
$INSUNITS
70
4
9
$EXTMIN
10
10
20
10
30
0
9
$EXTMAX
10
187.751744737
20
493.600616564
30
0
0
ENDSEC
0
SECTION
2
TABLES
0
TABLE
2
LAYER
5
2
100
AcDbSymbolTable
70
3
0
LAYER
5
10
330
2
100
AcDbSymbolTableRecord
100
AcDbLayerTableRecord
2
0
70
0
62
7
6
Continuous
0
LAYER
5
11
330
2
100
AcDbSymbolTableRecord
100
AcDbLayerTableRecord
2
CUT_FRONT
70
0
62
1
6
Continuous
0
LAYER
5
12
330
2
100
AcDbSymbolTableRecord
100
AcDbLayerTableRecord
2
CUT_BACK
70
0
62
5
6
Continuous
0
ENDTAB
0
ENDSEC
0
SECTION
2
ENTITIES
0
LWPOLYLINE
5
20
100
AcDbEntity
8
CUT_FRONT
100
AcDbPolyline
90
408
70
1
43
0
10
10
20
188.0802712
10
10.635581931
20
186.707869062
10
11.28006805
20
185.335304312
10
11.932890006
20
183.96258733
10
12.593479446
20
182.589728495
10
13.261268017
20
181.216738187
10
13.935687368
20
179.843626785
10
14.616169144
20
178.470404669
10
15.302144995
20
177.097082217
10
15.993046567
20
175.723669811
10
16.688305508
20
174.350177828
10
17.387353466
20
172.976616649
10
18.089622087
20
171.602996653
10
18.794543021
20
170.22932822
10
19.501547913
20
168.855621728
10
20.210068412
20
167.481887558
10
20.919536165
20
166.108136088
10
21.62938282
20
164.734377699
10
22.339040024
20
163.36062277
10
23.047939425
20
161.98688168
10
23.755512669
20
160.613164809
10
24.461191406
20
159.239482536
10
25.164407282
20
157.865845241
10
25.864591945
20
156.492263303
10
26.561177041
20
155.118747102
10
27.25359422
20
153.745307016
10
27.941275128
20
152.371953427
10
28.623651413
20
150.998696712
10
29.300154722
20
149.625547252
10
29.970216704
20
148.252515426
10
30.633269004
20
146.879611613
10
31.288743272
20
145.506846194
10
31.936071154
20
144.134229547
10
32.574684298
20
142.761772051
10
33.204014351
20
141.389484087
10
33.823492962
20
140.017376034
10
34.432551777
20
138.645458271
10
35.030622444
20
137.273741178
10
35.61713661
20
135.902235134
10
36.191525924
20
134.530950519
10
36.753222032
20
133.159897712
10
37.301656583
20
131.789087093
10
37.836261223
20
130.41852904
10
38.3564676
20
129.048233935
10
38.861707362
20
127.678212155
10
39.351412156
20
126.308474081
10
39.82501363
20
124.939030092
10
40.281943431
20
123.569890567
10
40.721633207
20
122.201065887
10
41.143514605
20
120.83256643
10
41.547019273
20
119.464402575
10
41.893662528
20
118.212238473
10
42.216339857
20
116.9481812
10
42.516079432
20
115.672999054
10
42.793909422
20
114.387460334
10
43.050857997
20
113.092333338
10
43.287953327
20
111.788386364
10
43.506223581
20
110.476387711
10
43.706696929
20
109.157105678
10
43.890401542
20
107.831308562
10
44.058365588
20
106.499764663
10
44.211617238
20
105.163242279
10
44.351184662
20
103.822509708
10
44.478096029
20
102.478335249
10
44.593379509
20
101.1314872
10
44.698063272
20
99.782733859
10
44.793175488
20
98.432843526
10
44.879744326
20
97.082584498
10
44.958797957
20
95.732725074
10
45.031364549
20
94.384033553
10
45.098472274
20
93.037278233
10
45.161149301
20
91.693227412
10
45.220423799
20
90.352649389
10
45.277323939
20
89.016312462
10
45.33287789
20
87.684984931
10
45.388113822
20
86.359435092
10
45.444059905
20
85.040431245
10
45.501744309
20
83.728741688
10
45.562195203
20
82.42513472
10
45.626440757
20
81.130378639
10
45.695509141
20
79.845241743
10
45.770428526
20
78.570492332
10
45.85222708
20
77.306898702
10
45.941932973
20
76.055229154
10
46.040574376
20
74.816251985
10
46.149179458
20
73.590735494
10
46.268776389
20
72.379447979
10
46.400393339
20
71.183157739
10
46.545058477
20
70.002633073
10
46.703799974
20
68.838642277
10
46.877645999
20
67.691953652
10
47.067624722
20
66.563335496
10
47.274764312
20
65.453556106
10
47.500092941
20
64.363383782
10
47.744638776
20
63.293586822
10
48.009429989
20
62.244933525
10
48.295494749
20
61.218192188
10
48.603861226
20
60.214131111
10
48.93555759
20
59.233518591
10
49.29161201
20
58.277122928
10
49.673052656
20
57.345712419
10
49.955943423
20
56.700524525
10
50.245749678
20
56.066051494
10
50.542327074
20
55.442023976
10
50.845531261
20
54.828172622
10
51.155217892
20
54.224228082
10
51.471242617
20
53.629921005
10
51.793461087
20
53.044982042
10
52.121728955
20
52.469141844
10
52.455901871
20
51.902131059
10
52.795835487
20
51.343680339
10
53.141385454
20
50.793520332
10
53.492407424
20
50.251381691
10
53.848757048
20
49.716995064
10
54.210289977
20
49.190091102
10
54.576861863
20
48.670400454
10
54.948328357
20
48.157653772
10
55.32454511
20
47.651581704
10
55.705367775
20
47.151914902
10
56.090652001
20
46.658384015
10
56.480253441
20
46.170719693
10
56.874027746
20
45.688652587
10
57.271830567
20
45.211913346
10
57.673517555
20
44.740232622
10
58.078944363
20
44.273341063
10
58.487966641
20
43.81096932
10
58.900440041
20
43.352848043
10
59.316220214
20
42.898707882
10
59.735162811
20
42.448279488
10
60.157123485
20
42.00129351
10
60.581957885
20
41.557480599
10
61.009521664
20
41.116571404
10
61.439670473
20
40.678296576
10
61.872259964
20
40.242386765
10
62.307145787
20
39.808572621
10
62.744183594
20
39.376584794
10
63.183229036
20
38.946153935
10
63.624137765
20
38.517010693
10
64.066765433
20
38.088885718
10
64.51096769
20
37.661509661
10
64.956600188
20
37.234613172
10
65.403518578
20
36.8079269
10
65.851578512
20
36.381181496
10
66.300635641
20
35.954107611
10
66.750545616
20
35.526435894
10
67.201164089
20
35.097896995
10
67.652346711
20
34.668221564
10
68.103949133
20
34.237140252
10
68.555827007
20
33.804383708
10
69.007835985
20
33.369682584
10
69.459831717
20
32.932767528
10
69.921075911
20
32.485460596
10
70.384979056
20
32.035414196
10
70.851520038
20
31.582935776
10
71.320677744
20
31.128332785
10
71.792431061
20
30.671912673
10
72.266758876
20
30.213982886
10
72.743640075
20
29.754850874
10
73.223053546
20
29.294824085
10
73.704978175
20
28.834209967
10
74.189392849
20
28.37331597
10
74.676276454
20
27.912449541
10
75.165607878
20
27.45191813
10
75.657366007
20
26.992029184
10
76.151529728
20
26.533090152
10
76.648077928
20
26.075408483
10
77.146989494
20
25.619291625
10
77.648243312
20
25.165047027
10
78.151818269
20
24.712982137
10
78.657693252
20
24.263404403
10
79.165847148
20
23.816621275
10
79.676258844
20
23.372940201
10
80.188907226
20
22.932668628
10
80.703771181
20
22.496114007
10
81.220829596
20
22.063583784
10
81.740061357
20
21.635385409
10
82.261445352
20
21.211826331
10
82.784960468
20
20.793213997
10
83.31058559
20
20.379855856
10
83.838299606
20
19.972059357
10
84.368081403
20
19.570131948
10
84.899909867
20
19.174381078
10
85.433763886
20
18.785114195
10
85.969622346
20
18.402638748
10
86.507464133
20
18.027262185
10
87.047268135
20
17.659291955
10
87.589013238
20
17.299035506
10
88.13267833
20
16.946800287
10
88.678242296
20
16.602893746
10
89.225684024
20
16.267623332
10
89.774982401
20
15.941296493
10
90.326116313
20
15.624220678
10
90.879064646
20
15.316703335
10
91.433806289
20
15.019051913
10
91.990320128
20
14.73157386
10
92.548585049
20
14.454576625
10
93.108579939
20
14.188367657
10
93.670283685
20
13.933254403
10
94.233675174
20
13.689544312
10
94.798733293
20
13.457544833
10
95.365436928
20
13.237563414
10
95.904860344
20
13.038263833
10
96.4490696
20
12.84509068
10
96.997872144
20
12.65806441
10
97.551075428
20
12.477205475
10
98.108486901
20
12.302534327
10
98.669914014
20
12.134071418
10
99.235164218
20
11.971837201
10
99.804044962
20
11.815852128
10
100.376363696
20
11.666136652
10
100.951927872
20
11.522711226
10
101.530544939
20
11.385596302
10
102.112022347
20
11.254812332
10
102.696167548
20
11.130379768
10
103.28278799
20
11.012319064
10
103.871691125
20
10.900650672
10
104.462684402
20
10.795395044
10
105.055575273
20
10.696572632
10
105.650171186
20
10.60420389
10
106.246279593
20
10.518309269
10
106.843707943
20
10.438909222
10
107.442263688
20
10.366024202
10
108.041754276
20
10.29967466
10
108.64198716
20
10.23988105
10
109.242769788
20
10.186663824
10
109.843909611
20
10.140043435
10
110.445214079
20
10.100040334
10
111.046490643
20
10.066674975
10
111.647546753
20
10.039967809
10
112.248189859
20
10.01993929
10
112.848227411
20
10.006609869
10
113.44746686
20
10
10
114.045715656
20
10.000130134
10
114.642781249
20
10.007020725
10
115.238471089
20
10.020692224
10
115.832592627
20
10.041165084
10
116.424953313
20
10.068459757
10
117.015360598
20
10.102596697
10
117.603621931
20
10.143596355
10
118.189544763
20
10.191479184
10
118.772936544
20
10.246265637
10
119.353604724
20
10.307976165
10
119.931356754
20
10.376631222
10
120.506000083
20
10.452251259
10
121.077342163
20
10.53485673
10
121.645190443
20
10.624468087
10
122.209352374
20
10.721105781
10
122.769635406
20
10.824790267
10
123.325846989
20
10.935541995
10
123.877794574
20
11.05338142
10
124.42528561
20
11.178328992
10
124.977285694
20
11.311324688
10
125.527529422
20
11.449738231
10
126.076034381
20
11.59366936
10
126.622818161
20
11.743217818
10
127.167898347
20
11.898483343
10
127.711292528
20
12.059565676
10
128.25301829
20
12.226564557
10
128.793093222
20
12.399579727
10
129.331534911
20
12.578710926
10
129.868360943
20
12.764057895
10
130.403588907
20
12.955720373
10
130.93723639
20
13.153798101
10
131.46932098
20
13.358390819
10
131.999860263
20
13.569598268
10
132.528871828
20
13.787520188
10
133.056373262
20
14.012256319
10
133.582382151
20
14.243906401
10
134.106916085
20
14.482570176
10
134.629992649
20
14.728347383
10
135.151629432
20
14.981337762
10
135.671844021
20
15.241641054
10
136.190654003
20
15.509356999
10
136.708076967
20
15.784585338
10
137.224130498
20
16.06742581
10
137.738832185
20
16.357978157
10
138.252199615
20
16.656342118
10
138.764250376
20
16.962617434
10
139.275002055
20
17.276903844
10
139.784472239
20
17.599301091
10
140.292678517
20
17.929908913
10
140.799638474
20
18.268827051
10
141.3053697
20
18.616155245
10
141.80988978
20
18.971993236
10
142.313216303
20
19.336440764
10
142.815366857
20
19.709597569
10
143.316359028
20
20.091563392
10
143.816210403
20
20.482437973
10
144.314938572
20
20.882321052
10
144.81256112
20
21.291312369
10
145.309095635
20
21.709511666
10
145.804559705
20
22.137018682
10
146.298970918
20
22.573933157
10
146.79234686
20
23.020354832
10
147.284705119
20
23.476383448
10
147.776063282
20
23.942118743
10
148.266438938
20
24.41766046
10
148.755849672
20
24.903108338
10
149.244313074
20
25.398562117
10
149.73184673
20
25.904121538
10
150.218468227
20
26.419886341
10
151.015494489
20
27.289107503
10
151.8211395
20
28.197911959
10
152.634651705
20
29.145238868
10
153.455279545
20
30.130027385
10
154.282271465
20
31.151216669
10
155.114875906
20
32.207745878
10
155.952341312
20
33.298554169
10
156.793916125
20
34.422580698
10
157.638848789
20
35.578764625
10
158.486387747
20
36.766045106
10
159.335781442
20
37.983361298
10
160.186278316
20
39.22965236
10
161.037126813
20
40.503857448
10
161.887575375
20
41.804915721
10
162.736872445
20
43.131766335
10
163.584266467
20
44.483348448
10
164.429005884
20
45.858601218
10
165.270339137
20
47.256463803
10
166.107514671
20
48.675875358
10
166.939780928
20
50.115775043
10
167.766386352
20
51.575102014
10
168.586579384
20
53.052795429
10
169.399608469
20
54.547794446
10
170.204722049
20
56.059038222
10
171.001168567
20
57.585465914
10
171.788196466
20
59.12601668
10
172.565054189
20
60.679629678
10
173.330990178
20
62.245244065
10
174.085252878
20
63.821798997
10
174.82709073
20
65.408233634
10
175.555752179
20
67.003487132
10
176.270485666
20
68.606498649
10
176.970539635
20
70.216207343
10
177.655162528
20
71.83155237
10
178.323602789
20
73.451472888
10
178.975108861
20
75.074908055
10
179.608929186
20
76.700797029
10
180.224312208
20
78.328078966
10
180.820506369
20
79.955693024
10
181.396760113
20
81.582578361
10
181.952321882
20
83.207674134
10
182.48644012
20
84.829919501
10
182.998363269
20
86.448253619
10
183.487339772
20
88.061615645
10
183.952618072
20
89.668944738
10
184.393446613
20
91.269180054
10
184.809073837
20
92.861260752
10
185.198748187
20
94.444125987
10
185.561718106
20
96.016714919
10
185.897232037
20
97.577966704
10
186.222676066
20
99.243570976
10
186.513475526
20
100.920846099
10
186.770701898
20
102.609431118
10
186.995426663
20
104.30896508
10
187.188721303
20
106.01908703
10
187.3516573
20
107.739436014
10
187.485306135
20
109.469651078
10
187.59073929
20
111.209371268
10
187.669028246
20
112.95823563
10
187.721244485
20
114.71588321
10
187.748459488
20
116.481953053
10
187.751744737
20
118.256084205
10
187.732171713
20
120.037915712
10
187.690811898
20
121.82708662
10
187.628736773
20
123.623235976
10
187.54701782
20
125.426002824
10
187.446726521
20
127.23502621
10
187.328934357
20
129.049945181
10
187.194712809
20
130.870398782
10
187.045133359
20
132.69602606
10
186.881267489
20
134.526466059
10
186.70418668
20
136.361357826
10
186.514962414
20
138.200340407
10
186.314666172
20
140.043052847
10
186.104369435
20
141.889134193
10
185.885143686
20
143.73822349
10
185.658060405
20
145.589959783
10
185.424191075
20
147.44398212
10
185.184607177
20
149.299929546
10
184.940380192
20
151.157441106
10
184.692581602
20
153.016155847
10
184.442282888
20
154.875712814
10
184.190555532
20
156.735751054
10
183.938471016
20
158.595909611
10
183.687100821
20
160.455827533
10
183.437516428
20
162.315143864
10
183.190789319
20
164.17349765
10
182.947990976
20
166.030527939
10
182.710192881
20
167.885873774
10
182.478466513
20
169.739174203
10
182.253883356
20
171.59006827
10
182.037514891
20
173.438195023
10
181.830432599
20
175.283193506
10
181.633707962
20
177.124702766
10
181.448412461
20
178.962361848
10
181.275617579
20
180.795809799
10
181.116394795
20
182.624685663
10
180.971815592
20
184.448628488
10
180.842951452
20
186.267277318
10
180.730873856
20
188.0802712
10
149.272408444
20
200.97852511
10
135.365436928
20
251.600616564
10
142.365436928
20
301.600616564
10
95.365436928
20
301.600616564
10
48.365436928
20
301.600616564
10
55.365436928
20
251.600616564
10
41.458465412
20
200.97852511
0
LWPOLYLINE
5
21
100
AcDbEntity
8
CUT_BACK
100
AcDbPolyline
90
12
70
1
43
0
10
94
20
493.600616564
10
141
20
493.600616564
10
134
20
443.600616564
10
150
20
393.600616564
10
178
20
393.600616564
10
178
20
331.600616564
10
94
20
331.600616564
10
10
20
331.600616564
10
10
20
393.600616564
10
38
20
393.600616564
10
54
20
443.600616564
10
47
20
493.600616564
0
ENDSEC
0
EOF
